<mxfile host="app.diagrams.net" agent="Mozilla/5.0 (X11; Linux x86_64; rv:132.0) Gecko/20100101 Firefox/132.0" version="24.9.1">
  <diagram name="Page-1" id="jtx0KwGTKXyS8V7mkJzk">
    <mxGraphModel dx="1272" dy="780" grid="1" gridSize="10" guides="1" tooltips="1" connect="1" arrows="1" fold="1" page="1" pageScale="1" pageWidth="850" pageHeight="1100" math="0" shadow="0">
      <root>
        <mxCell id="0" />
        <mxCell id="1" parent="0" />
        <mxCell id="2" value="Problem-Management Prozess" style="whiteSpace=wrap;strokeWidth=2;verticalAlign=top;" parent="1" vertex="1">
          <mxGeometry x="8" y="8" width="1463" height="239" as="geometry" />
        </mxCell>
        <mxCell id="3" value="Start" style="ellipse;aspect=fixed;strokeWidth=2;whiteSpace=wrap;" parent="2" vertex="1">
          <mxGeometry x="46" y="103" width="49" height="49" as="geometry" />
        </mxCell>
        <mxCell id="4" value="Problem analysieren" style="ellipse;aspect=fixed;strokeWidth=2;whiteSpace=wrap;" parent="2" vertex="1">
          <mxGeometry x="169" y="47" width="161" height="161" as="geometry" />
        </mxCell>
        <mxCell id="5" value="Problem identifizieren" style="ellipse;aspect=fixed;strokeWidth=2;whiteSpace=wrap;" parent="2" vertex="1">
          <mxGeometry x="405" y="43" width="169" height="169" as="geometry" />
        </mxCell>
        <mxCell id="6" value="Problem zuweisen" style="ellipse;aspect=fixed;strokeWidth=2;whiteSpace=wrap;" parent="2" vertex="1">
          <mxGeometry x="649" y="55" width="146" height="146" as="geometry" />
        </mxCell>
        <mxCell id="7" value="Problem lösen" style="ellipse;aspect=fixed;strokeWidth=2;whiteSpace=wrap;" parent="2" vertex="1">
          <mxGeometry x="870" y="69" width="117" height="117" as="geometry" />
        </mxCell>
        <mxCell id="8" value="Lösung verifizieren" style="ellipse;aspect=fixed;strokeWidth=2;whiteSpace=wrap;" parent="2" vertex="1">
          <mxGeometry x="1062" y="53" width="149" height="149" as="geometry" />
        </mxCell>
        <mxCell id="9" value="Problem schließen" style="ellipse;aspect=fixed;strokeWidth=2;whiteSpace=wrap;" parent="2" vertex="1">
          <mxGeometry x="1286" y="54" width="148" height="148" as="geometry" />
        </mxCell>
        <mxCell id="10" value="" style="curved=1;startArrow=none;endArrow=block;exitX=0.99;exitY=0.5;entryX=0;entryY=0.5;" parent="2" source="3" target="4" edge="1">
          <mxGeometry relative="1" as="geometry">
            <Array as="points" />
          </mxGeometry>
        </mxCell>
        <mxCell id="11" value="" style="curved=1;startArrow=none;endArrow=block;exitX=1;exitY=0.5;entryX=0;entryY=0.5;" parent="2" source="4" target="5" edge="1">
          <mxGeometry relative="1" as="geometry">
            <Array as="points" />
          </mxGeometry>
        </mxCell>
        <mxCell id="12" value="" style="curved=1;startArrow=none;endArrow=block;exitX=1;exitY=0.5;entryX=0;entryY=0.5;" parent="2" source="5" target="6" edge="1">
          <mxGeometry relative="1" as="geometry">
            <Array as="points" />
          </mxGeometry>
        </mxCell>
        <mxCell id="13" value="" style="curved=1;startArrow=none;endArrow=block;exitX=1;exitY=0.5;entryX=0;entryY=0.5;" parent="2" source="6" target="7" edge="1">
          <mxGeometry relative="1" as="geometry">
            <Array as="points" />
          </mxGeometry>
        </mxCell>
        <mxCell id="14" value="" style="curved=1;startArrow=none;endArrow=block;exitX=1;exitY=0.5;entryX=0;entryY=0.5;" parent="2" source="7" target="8" edge="1">
          <mxGeometry relative="1" as="geometry">
            <Array as="points" />
          </mxGeometry>
        </mxCell>
        <mxCell id="15" value="" style="curved=1;startArrow=none;endArrow=block;exitX=1;exitY=0.5;entryX=0;entryY=0.5;" parent="2" source="8" target="9" edge="1">
          <mxGeometry relative="1" as="geometry">
            <Array as="points" />
          </mxGeometry>
        </mxCell>
      </root>
    </mxGraphModel>
  </diagram>
</mxfile>
